<svg width="760" height="720" viewBox="0 0 760 720" fill="none" xmlns="http://www.w3.org/2000/svg">
  <rect width="760" height="720" rx="42" fill="#272218"/>
  <circle cx="594" cy="128" r="96" fill="#4FCAD6" fill-opacity="0.2"/>
  <circle cx="168" cy="524" r="124" fill="#4FCAD6" fill-opacity="0.14"/>
  <rect x="96" y="110" width="568" height="500" rx="30" fill="#302A1F" stroke="rgba(245,241,233,0.10)"/>
  <rect x="134" y="148" width="232" height="330" rx="26" fill="#1A1713"/>
  <rect x="394" y="148" width="230" height="92" rx="24" fill="#1A1713"/>
  <rect x="394" y="268" width="230" height="92" rx="24" fill="#1A1713"/>
  <rect x="394" y="388" width="230" height="92" rx="24" fill="#1A1713"/>
  <rect x="394" y="508" width="170" height="46" rx="23" fill="#4FCAD6"/>
  <circle cx="250" cy="250" r="72" fill="#4FCAD6"/>
  <path d="M215 314C223.667 287.333 243.4 274 274.2 274C305 274 324.6 287.333 333 314" stroke="#06292B" stroke-width="18" stroke-linecap="round"/>
  <circle cx="224" cy="236" r="10" fill="#06292B"/>
  <circle cx="276" cy="236" r="10" fill="#06292B"/>
  <text x="432" y="206" fill="#F5F1E9" font-family="Inter, Arial, sans-serif" font-size="24" font-weight="700">Placeholder</text>
  <text x="432" y="326" fill="#F5F1E9" font-family="Inter, Arial, sans-serif" font-size="24" font-weight="700">Hero image</text>
  <text x="432" y="446" fill="#F5F1E9" font-family="Inter, Arial, sans-serif" font-size="24" font-weight="700">Replace later</text>
  <text x="151" y="570" fill="#D9D3C6" font-family="Inter, Arial, sans-serif" font-size="20" font-weight="500">Nutripro front page visual</text>
</svg>
